<svg width="159" height="87" viewBox="0 0 159 87" fill="none" xmlns="http://www.w3.org/2000/svg">
<path d="M0 34.0812V42.7198L23.3294 40.154V30.8039L0 34.0812Z" fill="white"/>
<path d="M7.44531 43.2464V72.8597H15.9843V42.3724L7.44531 43.2464Z" fill="white"/>
<path d="M26.4805 30.3613V72.8597H35.4792V29.0952L26.4805 30.3613Z" fill="white"/>
<path d="M37.1611 28.8599V38.6358L50.1574 37.2072V27.0336L37.1611 28.8599Z" fill="white"/>
<path d="M37.1611 45.913V55.8682L45.6889 55.4032V45.1792L37.1611 45.913Z" fill="white"/>
<path d="M37.1611 63.0446V72.8597H50.1574V62.6525L37.1611 63.0446Z" fill="white"/>
<path d="M83.7637 22.2997V72.8597H95.5658V20.6414L83.7637 22.2997Z" fill="white"/>
<path d="M97.7695 20.3333V31.9635L114.965 30.0756V17.9187L97.7695 20.3333Z" fill="white"/>
<path d="M97.7695 40.7086V52.5573L109.039 51.941V39.745L97.7695 40.7086Z" fill="white"/>
<path d="M97.7695 61.2127V72.8597H114.965V60.6917L97.7695 61.2127Z" fill="white"/>
<path d="M53.5947 26.5518V72.8597H63.8493V25.112L53.5947 26.5518Z" fill="white"/>
<path d="M65.7607 62.1819V72.8597H80.6409V61.7337L65.7607 62.1819Z" fill="white"/>
<path d="M153.517 17.3473C149.788 13.8291 144.322 12.3838 138.34 13.2409V26.126C140.762 25.9916 142.724 26.8879 143.599 28.6974C144.978 31.549 143.554 35.8235 140.195 39.7898C135.009 45.9019 121.217 58.4228 121.217 58.4228L141.014 57.773C153.113 45.9635 157.453 38.7982 158.232 29.8515C158.445 27.5466 158.131 25.2235 157.314 23.0574C156.497 20.8914 155.199 18.9389 153.517 17.3473Z" fill="white"/>
<path d="M118.772 60.574L118.778 72.8597H158.928V59.364L118.772 60.574Z" fill="white"/>
<path d="M136.029 13.5322C124.362 16.014 118.649 24.591 119.299 38.5853L131.735 37.4649C131.174 29.5602 133.585 27.6834 136.035 26.6526L136.029 13.5322Z" fill="white"/>
</svg>
