<svg width="66" height="65" viewBox="0 0 66 65" fill="none" xmlns="http://www.w3.org/2000/svg">
<path d="M60.6485 57.4642L47.4454 44.2611H47.3032C51.3727 39.4628 53.4292 33.2767 53.0425 26.9969C52.6559 20.7171 49.8559 14.8301 45.2284 10.5673C40.6009 6.3045 34.5043 3.99615 28.214 4.12512C21.9236 4.25409 15.9268 6.81039 11.4779 11.2593C7.02901 15.7082 4.47272 21.705 4.34375 27.9954C4.21478 34.2857 6.52313 40.3823 10.7859 45.0098C15.0487 49.6373 20.9358 52.4372 27.2155 52.8239C33.4953 53.2106 39.6814 51.1541 44.4797 47.0845C44.4797 47.0845 44.4797 47.1861 44.4797 47.2267L57.6828 60.4298C57.8717 60.6202 58.0963 60.7713 58.3439 60.8745C58.5914 60.9776 58.8569 61.0307 59.125 61.0307C59.3932 61.0307 59.6587 60.9776 59.9062 60.8745C60.1537 60.7713 60.3784 60.6202 60.5672 60.4298C60.7755 60.2455 60.9436 60.0203 61.0613 59.7682C61.1789 59.5162 61.2436 59.2427 61.2512 58.9647C61.2588 58.6866 61.2093 58.41 61.1056 58.1519C61.0019 57.8938 60.8463 57.6597 60.6485 57.4642ZM28.7375 48.7502C24.7201 48.7502 20.7929 47.5588 17.4525 45.3269C14.1121 43.0949 11.5086 39.9225 9.97124 36.2109C8.43383 32.4993 8.03158 28.4151 8.81534 24.4749C9.5991 20.5347 11.5337 16.9153 14.3744 14.0746C17.2152 11.2338 20.8345 9.29922 24.7748 8.51546C28.715 7.7317 32.7992 8.13395 36.5108 9.67136C40.2224 11.2088 43.3948 13.8123 45.6268 17.1526C47.8587 20.493 49.05 24.4202 49.05 28.4377C49.05 31.1051 48.5246 33.7465 47.5038 36.2109C46.483 38.6753 44.9868 40.9146 43.1006 42.8008C41.2145 44.687 38.9752 46.1832 36.5108 47.204C34.0464 48.2248 31.405 48.7502 28.7375 48.7502Z" fill="white"/>
</svg>
