<svg width="12" height="13" viewBox="0 0 12 13" fill="none" xmlns="http://www.w3.org/2000/svg">
<g clip-path="url(#clip0)">
<path d="M6 12.3125C9.20625 12.3125 11.8125 9.70625 11.8125 6.5C11.8125 3.29375 9.20625 0.6875 6 0.6875C2.79375 0.6875 0.1875 3.29375 0.1875 6.5C0.1875 9.70625 2.79375 12.3125 6 12.3125ZM1.5 8.81562L3.8625 8.79688C4.125 9.74375 4.56562 10.6625 5.16562 11.4875C3.5625 11.225 2.22187 10.2031 1.5 8.81562ZM4.4625 4.90625H7.40625C7.62187 5.9375 7.62187 6.99688 7.425 8.02813L4.4625 8.04688C4.24687 7.00625 4.24687 5.9375 4.4625 4.90625ZM5.93437 11.2719C5.34375 10.5125 4.9125 9.67813 4.65 8.79688L7.22812 8.77813C6.95625 9.65938 6.525 10.5031 5.93437 11.2719ZM6.68438 11.5156C7.30313 10.6719 7.74375 9.74375 8.00625 8.76875L10.5281 8.75C9.79688 10.2219 8.37188 11.2812 6.68438 11.5156ZM11.0625 6.5C11.0625 7.025 10.9781 7.53125 10.8375 8L8.18438 8.01875C8.37188 6.9875 8.3625 5.9375 8.16562 4.90625H10.8C10.9688 5.40312 11.0625 5.94688 11.0625 6.5ZM10.4813 4.15625H7.9875C7.71562 3.21875 7.28438 2.30938 6.68438 1.48438C8.34375 1.70938 9.74063 2.73125 10.4813 4.15625ZM7.20938 4.15625H4.65938C4.93125 3.29375 5.35313 2.47813 5.93437 1.72813C6.51562 2.47813 6.9375 3.29375 7.20938 4.15625ZM5.16562 1.5125C4.575 2.32812 4.14375 3.21875 3.88125 4.15625H1.51875C2.24063 2.77813 3.57187 1.775 5.16562 1.5125ZM3.70312 4.90625C3.50625 5.94688 3.50625 7.00625 3.69375 8.04688L1.19062 8.06562C1.02187 7.56875 0.9375 7.04375 0.9375 6.5C0.9375 5.94688 1.03125 5.40312 1.2 4.90625H3.70312Z" fill="#C3E400"/>
</g>
<defs>
<clipPath id="clip0">
<rect width="12" height="12" fill="white" transform="translate(0 0.5)"/>
</clipPath>
</defs>
</svg>
