<svg width="11" height="11" viewBox="0 0 11 11" fill="none" xmlns="http://www.w3.org/2000/svg">
<path d="M9.95684 8.47104L9.90706 8.32104C9.78915 7.97059 9.40269 7.60508 9.04764 7.50879L7.73362 7.14983C7.37727 7.05288 6.86896 7.18324 6.60824 7.44393L6.13267 7.9195C4.40435 7.45249 3.04907 6.09717 2.58268 4.36917L3.05827 3.89358C3.31899 3.63287 3.44932 3.12522 3.35238 2.76888L2.99406 1.4542C2.89712 1.09851 2.53094 0.712047 2.18116 0.595439L2.03116 0.545006C1.68071 0.428398 1.18091 0.546326 0.920211 0.807023L0.208824 1.51906C0.0817357 1.64548 0.000510451 2.00706 0.000510451 2.00838C-0.0243707 4.26697 0.861247 6.44301 2.45888 8.04066C4.05259 9.63437 6.22048 10.5187 8.4725 10.4997C8.48428 10.4997 8.85635 10.4198 8.98344 10.2933L9.69482 9.58195C9.95552 9.32127 10.0734 8.82149 9.95684 8.47104Z" fill="#C3E400"/>
</svg>
