<svg width="12" height="13" viewBox="0 0 12 13" fill="none" xmlns="http://www.w3.org/2000/svg">
<g clip-path="url(#clip0)">
<path fill-rule="evenodd" clip-rule="evenodd" d="M5.9999 1.8499C5.11474 1.8499 4.26584 2.20153 3.63993 2.82743C3.01403 3.45334 2.6624 4.30224 2.6624 5.1874C2.6624 5.58106 2.85092 6.15597 3.21112 6.85579C3.56134 7.53621 4.03485 8.26178 4.51826 8.93396C5.00011 9.60396 5.48325 10.2091 5.8466 10.6475C5.90053 10.7125 5.95176 10.7738 5.9999 10.8311C6.04804 10.7738 6.09928 10.7125 6.15321 10.6475C6.51655 10.2091 6.99969 9.60396 7.48154 8.93396C7.96495 8.26178 8.43847 7.53621 8.78869 6.85579C9.14888 6.15597 9.3374 5.58106 9.3374 5.1874C9.3374 4.30224 8.98577 3.45334 8.35987 2.82743C7.73397 2.20153 6.88506 1.8499 5.9999 1.8499ZM5.9999 11.7499C5.55336 12.1506 5.55329 12.1506 5.55322 12.1505L5.55225 12.1494L5.54972 12.1466L5.54048 12.1362L5.50589 12.0972C5.47592 12.0632 5.43241 12.0137 5.37732 11.9501C5.26715 11.823 5.11047 11.6397 4.92274 11.4133C4.5478 10.961 4.04657 10.3333 3.54404 9.6346C3.04308 8.93802 2.53222 8.15891 2.14416 7.40496C1.76607 6.67039 1.4624 5.88125 1.4624 5.1874C1.4624 3.98398 1.94046 2.82985 2.79141 1.97891C3.64235 1.12796 4.79648 0.649902 5.9999 0.649902C7.20332 0.649902 8.35745 1.12796 9.2084 1.97891C10.0593 2.82985 10.5374 3.98398 10.5374 5.1874C10.5374 5.88125 10.2337 6.67039 9.85565 7.40496C9.46759 8.15891 8.95673 8.93802 8.45576 9.6346C7.95324 10.3333 7.452 10.961 7.07706 11.4133C6.88934 11.6397 6.73265 11.823 6.62249 11.9501C6.56739 12.0137 6.52389 12.0632 6.49391 12.0972L6.45933 12.1362L6.45008 12.1466L6.44755 12.1494L6.44659 12.1505C6.44651 12.1506 6.44645 12.1506 5.9999 11.7499ZM5.9999 11.7499L6.44659 12.1505C6.33279 12.2773 6.17029 12.3499 5.9999 12.3499C5.82951 12.3499 5.66702 12.2773 5.55322 12.1505L5.9999 11.7499Z" fill="#C3E400"/>
<path fill-rule="evenodd" clip-rule="evenodd" d="M6.0001 4.4749C5.75157 4.4749 5.5501 4.67637 5.5501 4.9249C5.5501 5.17343 5.75157 5.3749 6.0001 5.3749C6.24863 5.3749 6.4501 5.17343 6.4501 4.9249C6.4501 4.67637 6.24863 4.4749 6.0001 4.4749ZM4.3501 4.9249C4.3501 4.01363 5.08883 3.2749 6.0001 3.2749C6.91137 3.2749 7.6501 4.01363 7.6501 4.9249C7.6501 5.83617 6.91137 6.5749 6.0001 6.5749C5.08883 6.5749 4.3501 5.83617 4.3501 4.9249Z" fill="#C3E400"/>
</g>
<defs>
<clipPath id="clip0">
<rect width="12" height="12" fill="white" transform="translate(0 0.5)"/>
</clipPath>
</defs>
</svg>
