<svg width="31" height="30" viewBox="0 0 31 30" fill="none" xmlns="http://www.w3.org/2000/svg">
<path d="M18.7299 8.19133C18.7298 7.45384 18.511 6.73293 18.1012 6.11978C17.6914 5.50662 17.109 5.02875 16.4276 4.7466C15.7462 4.46444 14.9964 4.39067 14.2731 4.5346C13.5498 4.67854 12.8854 5.03373 12.364 5.55525C11.8425 6.07678 11.4874 6.74121 11.3436 7.46454C11.1997 8.18787 11.2736 8.93761 11.5559 9.61896C11.8381 10.3003 12.3161 10.8827 12.9293 11.2924C13.5425 11.7021 14.2634 11.9208 15.0009 11.9208C15.9896 11.9196 16.9375 11.5263 17.6365 10.8271C18.3356 10.1279 18.7288 9.18003 18.7299 8.19133ZM12.1552 8.19133C12.1553 7.62852 12.3223 7.07838 12.635 6.61047C12.9478 6.14256 13.3923 5.77789 13.9123 5.56258C14.4323 5.34727 15.0044 5.29099 15.5564 5.40085C16.1084 5.51071 16.6154 5.78178 17.0133 6.17978C17.4113 6.57778 17.6822 7.08485 17.792 7.63685C17.9018 8.18885 17.8454 8.76101 17.63 9.28097C17.4146 9.80092 17.0498 10.2453 16.5819 10.558C16.1139 10.8707 15.5637 11.0376 15.0009 11.0376C14.2464 11.0367 13.523 10.7365 12.9895 10.2029C12.456 9.66933 12.1559 8.94589 12.1552 8.19133Z" fill="black"/>
<path d="M29.9718 29.4009L26.3719 19.9631C26.3399 19.8796 26.2834 19.8077 26.2097 19.7569C26.136 19.7062 26.0487 19.679 25.9593 19.679H19.1459C19.1875 19.6111 19.2289 19.5452 19.2705 19.4771C21.8922 15.1367 23.2114 11.3399 23.1925 8.19361C23.1929 6.0209 22.3301 3.93703 20.7941 2.40043C19.258 0.863828 17.1744 0.000368215 15.0017 1.17739e-07C12.829 -0.00036798 10.7451 0.862385 9.20851 2.39846C7.67191 3.93454 6.80845 6.01812 6.80808 8.19083C6.78915 11.3399 8.10843 15.1372 10.7301 19.4771C10.7717 19.546 10.8131 19.6118 10.8547 19.679H4.04134C3.95189 19.679 3.86455 19.7062 3.79088 19.7569C3.71721 19.8077 3.66068 19.8796 3.62875 19.9631L0.0292569 29.4009C0.00360938 29.4678 -0.00537173 29.5399 0.00308962 29.611C0.011551 29.6821 0.0372003 29.7501 0.0778214 29.8091C0.118443 29.8681 0.172814 29.9163 0.236237 29.9495C0.299661 29.9828 0.37023 30.0001 0.441846 30H29.5593C29.6309 30.0001 29.7014 29.9828 29.7649 29.9495C29.8283 29.9163 29.8827 29.8681 29.9233 29.8091C29.9639 29.7501 29.9896 29.6821 29.998 29.611C30.0065 29.5399 29.9975 29.4678 29.9718 29.4009ZM7.69155 8.19159C7.69171 7.23176 7.88093 6.28136 8.2484 5.39465C8.61586 4.50795 9.15438 3.7023 9.8332 3.02371C10.512 2.34513 11.3179 1.80689 12.2047 1.43973C13.0915 1.07257 14.042 0.883683 15.0018 0.883848C15.9616 0.884014 16.912 1.07323 17.7988 1.4407C18.6855 1.80816 19.4911 2.34668 20.1697 3.0255C20.8483 3.70432 21.3865 4.51015 21.7537 5.39698C22.1208 6.28382 22.3097 7.23428 22.3096 8.19411C22.3474 14.467 16.4828 22.2037 15.0006 24.059C13.5183 22.2045 7.65344 14.4698 7.69155 8.19159ZM14.6642 25.0431C14.7056 25.0919 14.7572 25.131 14.8153 25.1579C14.8733 25.1847 14.9366 25.1986 15.0006 25.1986C15.0645 25.1986 15.1278 25.1847 15.1858 25.1579C15.2439 25.131 15.2955 25.0919 15.3369 25.0431C16.5094 23.6148 17.5964 22.1184 18.5922 20.5617H25.6547L26.2199 22.0442L12.4188 26.9526L7.49951 20.5609H11.4084C12.4043 22.1179 13.4915 23.6146 14.6642 25.0431ZM12.4034 27.8947H12.4059L20.6393 24.9674L23.8327 29.1168H8.96944L12.4034 27.8947ZM4.34592 20.5609H6.38489L11.5434 27.2638L6.33417 29.1165H1.08281L4.34592 20.5609ZM24.9484 29.1168L21.5142 24.6548L26.5359 22.8689L28.9188 29.1168H24.9484Z" fill="black"/>
</svg>
