<svg width="125" height="40" viewBox="0 0 125 40" fill="none" xmlns="http://www.w3.org/2000/svg">
<path d="M114.157 0.500005H9.91141C9.53142 0.500005 9.156 0.500005 8.77701 0.501955C8.45977 0.503905 8.14506 0.509569 7.82477 0.514337C7.12895 0.522041 6.43477 0.579639 5.74826 0.686629C5.06271 0.795949 4.39864 1.00205 3.7785 1.29795C3.15912 1.59636 2.59318 1.98412 2.1012 2.44715C1.60664 2.90888 1.19438 3.44257 0.880288 4.02771C0.565325 4.61169 0.346929 5.23747 0.232642 5.88345C0.117269 6.52861 0.0551853 7.18121 0.0469489 7.8354C0.0373327 8.13433 0.0363172 8.43426 0.03125 8.73324V31.2696C0.0363172 31.5724 0.0373327 31.8657 0.0469489 32.1685C0.0551879 32.8226 0.117271 33.4752 0.232642 34.1203C0.346613 34.7667 0.565023 35.3928 0.880288 35.977C1.19424 36.5603 1.60655 37.0918 2.1012 37.551C2.59131 38.0161 3.15762 38.4041 3.7785 38.7002C4.39863 38.9969 5.06263 39.2042 5.74826 39.3152C6.43489 39.4214 7.12899 39.479 7.82477 39.4876C8.14506 39.4943 8.45977 39.4981 8.77701 39.4981C9.15599 39.5 9.53144 39.5 9.91141 39.5H114.157C114.529 39.5 114.908 39.5 115.28 39.4981C115.596 39.4981 115.92 39.4943 116.235 39.4876C116.93 39.4795 117.622 39.4218 118.308 39.3152C118.996 39.2035 119.662 38.9962 120.285 38.7002C120.905 38.4039 121.471 38.0159 121.961 37.551C122.454 37.09 122.867 36.5589 123.185 35.977C123.498 35.3924 123.714 34.7663 123.827 34.1203C123.942 33.4751 124.007 32.8227 124.019 32.1685C124.023 31.8657 124.023 31.5724 124.023 31.2696C124.031 30.9154 124.031 30.5632 124.031 30.2032V9.79773C124.031 9.44068 124.031 9.08648 124.023 8.73324C124.023 8.43426 124.023 8.13433 124.019 7.83536C124.007 7.18112 123.942 6.52866 123.827 5.88341C123.714 5.2378 123.498 4.61207 123.185 4.02767C122.546 2.85482 121.531 1.90013 120.285 1.29787C119.662 1.00268 118.995 0.796639 118.308 0.686542C117.623 0.57908 116.93 0.521462 116.235 0.514201C115.92 0.509443 115.596 0.503729 115.28 0.501828C114.908 0.499878 114.529 0.499878 114.157 0.499878V0.500005Z" fill="#A6A6A6"/>
<path d="M8.78221 38.6469C8.46649 38.6469 8.1584 38.6431 7.84516 38.6364C7.19625 38.6285 6.54886 38.5753 5.90829 38.4774C5.311 38.3806 4.73238 38.2006 4.19152 37.9432C3.65562 37.688 3.16684 37.3533 2.7439 36.952C2.31484 36.5555 1.95762 36.0955 1.68641 35.5904C1.41222 35.0821 1.22245 34.5371 1.12374 33.9747C1.01714 33.3703 0.959459 32.7591 0.951206 32.1465C0.944636 31.9409 0.936035 31.2563 0.936035 31.2563V8.73322C0.936035 8.73322 0.945196 8.0591 0.951257 7.86105C0.95916 7.24941 1.0165 6.63923 1.12279 6.03578C1.22168 5.47176 1.41159 4.92527 1.68594 4.41523C1.95615 3.91049 2.31138 3.45021 2.73786 3.05223C3.16386 2.65047 3.6542 2.31408 4.19101 2.05532C4.73063 1.79879 5.30815 1.62001 5.90424 1.52498C6.54691 1.42608 7.19655 1.37262 7.84771 1.36502L8.78272 1.35312H115.275L116.221 1.3655C116.866 1.37272 117.51 1.42571 118.147 1.52403C118.749 1.62024 119.333 1.80027 119.878 2.05818C120.954 2.57966 121.829 3.40468 122.381 4.41761C122.651 4.92413 122.838 5.46616 122.935 6.02531C123.043 6.63371 123.103 7.24869 123.116 7.86534C123.119 8.14146 123.119 8.43805 123.119 8.73322C123.127 9.09885 123.127 9.44686 123.127 9.79772V30.2032C123.127 30.5574 123.127 30.903 123.119 31.2515C123.119 31.5686 123.119 31.859 123.115 32.1579C123.102 32.7636 123.043 33.3676 122.937 33.9651C122.841 34.5316 122.652 35.0808 122.378 35.5934C122.105 36.093 121.75 36.5489 121.325 36.9444C120.902 37.3479 120.413 37.6845 119.875 37.9414C119.331 38.2007 118.748 38.3814 118.147 38.4774C117.506 38.5758 116.859 38.629 116.21 38.6364C115.906 38.6431 115.589 38.6469 115.28 38.6469L114.157 38.6488L8.78221 38.6469Z" fill="black"/>
<path d="M25.6977 20.2932C25.7089 19.4794 25.9386 18.6815 26.3656 17.9737C26.7925 17.2658 27.4028 16.6712 28.1397 16.2449C27.6716 15.6159 27.054 15.0982 26.3361 14.733C25.6182 14.3678 24.8196 14.1652 24.0039 14.1412C22.2638 13.9693 20.5769 15.1209 19.6902 15.1209C18.7863 15.1209 17.4211 14.1582 15.9509 14.1867C15 14.2156 14.0732 14.4758 13.261 14.9419C12.4487 15.408 11.7786 16.0641 11.3159 16.8464C9.31185 20.1111 10.8067 24.9091 12.7264 27.548C13.6869 28.8403 14.8095 30.2837 16.2783 30.2325C17.7156 30.1764 18.2524 29.3701 19.9874 29.3701C21.7062 29.3701 22.2099 30.2325 23.7085 30.2C25.2508 30.1764 26.2225 28.902 27.1493 27.5976C27.8394 26.6768 28.3705 25.6592 28.7228 24.5824C27.8267 24.2258 27.0621 23.6289 26.5241 22.8662C25.9862 22.1034 25.6988 21.2086 25.6977 20.2932Z" fill="white"/>
<path d="M22.8671 12.4056C23.7081 11.4558 24.1224 10.2349 24.022 9.00226C22.7373 9.12922 21.5505 9.70697 20.6982 10.6204C20.2815 11.0666 19.9624 11.5857 19.759 12.1481C19.5556 12.7104 19.4721 13.305 19.5131 13.8977C20.1557 13.904 20.7914 13.7729 21.3724 13.5144C21.9534 13.256 22.4644 12.8769 22.8671 12.4056Z" fill="white"/>
<path d="M43.8664 26.9611H38.9615L37.7836 30.2337H35.7061L40.3519 18.1261H42.5104L47.1562 30.2337H45.0433L43.8664 26.9611ZM39.4695 25.451H43.3574L41.4408 20.1399H41.3872L39.4695 25.451Z" fill="white"/>
<path d="M57.1899 25.8205C57.1899 28.5636 55.6295 30.3261 53.2747 30.3261C52.6782 30.3554 52.0849 30.2261 51.5629 29.953C51.0408 29.6799 50.6111 29.2739 50.3228 28.7817H50.2783V33.1539H48.3525V21.4063H50.2166V22.8745H50.252C50.5535 22.3846 50.9905 21.9808 51.5165 21.706C52.0426 21.4312 52.6379 21.2957 53.2393 21.314C55.6203 21.314 57.1899 23.085 57.1899 25.8205ZM55.2105 25.8205C55.2105 24.0333 54.2289 22.8584 52.7313 22.8584C51.2599 22.8584 50.2702 24.0581 50.2702 25.8205C50.2702 27.5991 51.2599 28.7903 52.7313 28.7903C54.2289 28.7903 55.2105 27.6239 55.2105 25.8205Z" fill="white"/>
<path d="M67.5156 25.8205C67.5156 28.5636 65.9552 30.3261 63.6004 30.3261C63.0039 30.3554 62.4106 30.2261 61.8886 29.953C61.3665 29.6799 60.9368 29.2739 60.6485 28.7817H60.604V33.1539H58.6782V21.4063H60.5422V22.8745H60.5776C60.8791 22.3846 61.3161 21.9808 61.8422 21.706C62.3682 21.4312 62.9636 21.2957 63.5649 21.314C65.9461 21.314 67.5156 23.085 67.5156 25.8205ZM65.5362 25.8205C65.5362 24.0333 64.5546 22.8584 63.0569 22.8584C61.5856 22.8584 60.5959 24.0581 60.5959 25.8205C60.5959 27.5991 61.5856 28.7902 63.0569 28.7902C64.5546 28.7902 65.5362 27.6239 65.5362 25.8205H65.5362Z" fill="white"/>
<path d="M74.34 26.8602C74.4826 28.0609 75.7223 28.8492 77.4163 28.8492C79.0394 28.8492 80.2072 28.0608 80.2072 26.9782C80.2072 26.0385 79.5029 25.4758 77.8352 25.0901L76.1675 24.7121C73.8046 24.1751 72.7077 23.1354 72.7077 21.4482C72.7077 19.3591 74.6425 17.9243 77.39 17.9243C80.109 17.9243 81.9731 19.3591 82.0358 21.4482H80.0918C79.9755 20.2399 78.9139 19.5105 77.3626 19.5105C75.8113 19.5105 74.7498 20.2485 74.7498 21.3225C74.7498 22.1785 75.4278 22.6821 77.0864 23.0677L78.5041 23.3953C81.1443 23.9827 82.2412 24.9806 82.2412 26.7516C82.2412 29.0168 80.3236 30.4355 77.2736 30.4355C74.4199 30.4355 72.4931 29.0501 72.3687 26.8601L74.34 26.8602Z" fill="white"/>
<path d="M86.3976 19.3173V21.4063H88.1816V22.8412H86.3976V27.7076C86.3976 28.4636 86.7548 28.8159 87.539 28.8159C87.7508 28.8124 87.9623 28.7985 88.1725 28.774V30.2003C87.8199 30.2623 87.4615 30.2904 87.1029 30.2841C85.2035 30.2841 84.4627 29.6128 84.4627 27.9009V22.8412H83.0986V21.4063H84.4627V19.3173H86.3976Z" fill="white"/>
<path d="M89.2148 25.8205C89.2148 23.0431 90.9534 21.2978 93.6644 21.2978C96.3845 21.2978 98.1149 23.043 98.1149 25.8205C98.1149 28.6055 96.3936 30.3432 93.6644 30.3432C90.9361 30.3432 89.2148 28.6055 89.2148 25.8205ZM96.1527 25.8205C96.1527 23.9152 95.2248 22.7908 93.6644 22.7908C92.1039 22.7908 91.177 23.9238 91.177 25.8205C91.177 27.7334 92.1039 28.8493 93.6644 28.8493C95.2248 28.8493 96.1527 27.7334 96.1527 25.8205H96.1527Z" fill="white"/>
<path d="M99.7026 21.4063H101.539V22.9088H101.584C101.708 22.4395 102 22.0248 102.411 21.7344C102.822 21.444 103.327 21.2955 103.841 21.3139C104.062 21.3132 104.284 21.3359 104.5 21.3816V23.0764C104.22 22.9958 103.928 22.9588 103.635 22.9669C103.355 22.9562 103.076 23.0026 102.818 23.1029C102.559 23.2032 102.326 23.3551 102.135 23.548C101.945 23.741 101.801 23.9704 101.713 24.2207C101.626 24.4709 101.597 24.7361 101.628 24.9978V30.2337H99.7026L99.7026 21.4063Z" fill="white"/>
<path d="M113.379 27.641C113.12 29.2434 111.461 30.3432 109.339 30.3432C106.61 30.3432 104.916 28.6226 104.916 25.8624C104.916 23.0935 106.619 21.2978 109.258 21.2978C111.854 21.2978 113.486 22.9754 113.486 25.6519V26.2727H106.86V26.3822C106.829 26.7071 106.873 27.0344 106.987 27.3423C107.101 27.6503 107.283 27.9318 107.522 28.1683C107.761 28.4048 108.05 28.5908 108.371 28.7139C108.692 28.8371 109.037 28.8946 109.384 28.8826C109.839 28.9227 110.296 28.8235 110.686 28.5998C111.076 28.3761 111.379 28.0398 111.55 27.641L113.379 27.641ZM106.869 25.0064H111.559C111.577 24.7143 111.53 24.422 111.421 24.1478C111.313 23.8736 111.145 23.6235 110.929 23.4131C110.713 23.2027 110.453 23.0367 110.166 22.9253C109.878 22.8139 109.569 22.7597 109.258 22.766C108.945 22.7642 108.634 22.8209 108.344 22.9328C108.053 23.0447 107.79 23.2095 107.568 23.4178C107.345 23.6261 107.169 23.8737 107.049 24.1464C106.93 24.419 106.868 24.7113 106.869 25.0064V25.0064Z" fill="white"/>
<path d="M38.1006 11.4721H38.9274C39.0697 11.4888 39.2142 11.4775 39.3516 11.4391C39.4891 11.4006 39.6166 11.3358 39.7262 11.2486C39.8357 11.1615 39.9248 11.054 39.988 10.9328C40.0512 10.8117 40.087 10.6795 40.0932 10.5447C40.0932 10.0082 39.6641 9.66157 38.9365 9.66157C38.7907 9.6424 38.6423 9.65092 38.5 9.68661C38.3578 9.7223 38.2245 9.78445 38.1082 9.86939C37.9919 9.95433 37.8949 10.0603 37.8229 10.1811C37.7508 10.3019 37.7052 10.4351 37.6888 10.5728H36.781C36.7967 10.3229 36.8668 10.0787 36.9871 9.85541C37.1073 9.63212 37.2752 9.43452 37.4801 9.27491C37.6851 9.1153 37.9227 8.9971 38.1783 8.92766C38.4339 8.85822 38.702 8.83903 38.9658 8.87129C40.1832 8.87129 41.0404 9.51255 41.0404 10.4357C41.0432 10.7449 40.9333 11.0457 40.7288 11.2879C40.5244 11.5301 40.2379 11.6989 39.9171 11.7663V11.8348C40.2974 11.8507 40.6555 12.0076 40.9132 12.2712C41.1709 12.5348 41.3072 12.8837 41.2923 13.2416C41.2642 13.4989 41.1817 13.7484 41.0498 13.9753C40.9179 14.2022 40.7392 14.4021 40.5241 14.5632C40.309 14.7242 40.0619 14.8433 39.7973 14.9134C39.5327 14.9835 39.2559 15.0031 38.9831 14.9712C38.7097 15.0063 38.4316 14.9892 38.1654 14.921C37.8992 14.8528 37.6503 14.7348 37.4336 14.5742C37.2169 14.4136 37.0367 14.2135 36.9039 13.9859C36.7711 13.7584 36.6884 13.508 36.6606 13.2497H37.5825C37.6382 13.8063 38.1816 14.1653 38.9831 14.1653C39.7845 14.1653 40.3077 13.762 40.3077 13.1936C40.3077 12.6171 39.8149 12.2619 38.9537 12.2619H38.1006V11.4721Z" fill="white"/>
<path d="M42.3398 13.5887C42.3398 12.7984 42.9662 12.3428 44.0753 12.2781L45.3393 12.2095V11.8306C45.3393 11.3669 45.0144 11.105 44.384 11.105C43.8699 11.105 43.5147 11.2826 43.4115 11.593H42.52C42.6141 10.8389 43.369 10.3552 44.4275 10.3552C45.5973 10.3552 46.2571 10.9032 46.2571 11.8306V14.8303H45.3696V14.2133H45.2968C45.1489 14.4346 44.9412 14.6151 44.695 14.7362C44.4487 14.8573 44.1728 14.9147 43.8952 14.9027C43.6993 14.9218 43.5013 14.9022 43.314 14.8449C43.1267 14.7877 42.9542 14.6942 42.8077 14.5704C42.6612 14.4466 42.5438 14.2953 42.4632 14.1262C42.3826 13.9571 42.3406 13.774 42.3398 13.5887ZM45.3393 13.2136V12.8465L44.1998 12.9151C43.5572 12.9555 43.2657 13.1612 43.2657 13.5482C43.2657 13.9434 43.63 14.1733 44.131 14.1733C44.2778 14.1873 44.426 14.1734 44.567 14.1323C44.7079 14.0913 44.8386 14.024 44.9514 13.9345C45.0641 13.8449 45.1565 13.7349 45.2232 13.6111C45.2898 13.4873 45.3293 13.3521 45.3393 13.2136Z" fill="white"/>
<path d="M48.7007 11.1693V14.8303H47.7798V10.44H50.8521V11.1693L48.7007 11.1693Z" fill="white"/>
<path d="M56.4331 12.6332C56.4331 14.0281 55.6833 14.9027 54.5054 14.9027C54.2162 14.9212 53.9275 14.8617 53.6731 14.7311C53.4187 14.6004 53.2092 14.4041 53.0694 14.1652H52.9966V16.2899H52.0757V10.4399H52.9622V11.1655H53.031C53.1733 10.9183 53.3854 10.7129 53.644 10.572C53.9026 10.4311 54.1975 10.3602 54.4963 10.3671C55.6833 10.3671 56.4331 11.2378 56.4331 12.6332ZM55.486 12.6332C55.486 11.7058 55.0194 11.1455 54.2392 11.1455C53.4641 11.1455 52.9794 11.7177 52.9794 12.637C52.9794 13.552 53.4641 14.1248 54.2352 14.1248C55.0194 14.1248 55.486 13.5644 55.486 12.6332Z" fill="white"/>
<path d="M57.6597 16.4028V15.6568C57.7594 15.6687 57.8598 15.6741 57.9602 15.673C58.1564 15.6867 58.3511 15.6317 58.5068 15.5186C58.6626 15.4055 58.7685 15.2423 58.8042 15.0603L58.873 14.8465L57.1841 10.44H58.1869L59.3568 13.9272H59.4296L60.5954 10.44H61.5719L59.8324 15.0117C59.4337 16.08 58.9925 16.4228 58.0413 16.4228C57.9643 16.4228 57.7458 16.4147 57.6597 16.4028Z" fill="white"/>
<path d="M62.2891 13.5844H63.2059C63.296 13.9715 63.6815 14.1733 64.2209 14.1733C64.8341 14.1733 65.2106 13.9191 65.2106 13.524C65.2106 13.1007 64.8726 12.8989 64.2209 12.8989H63.5226V12.2257H64.2087C64.7653 12.2257 65.0486 12.0243 65.0486 11.6573C65.0486 11.335 64.7744 11.0889 64.2087 11.0889C63.6936 11.0889 63.3172 11.2945 63.2575 11.6411H62.37C62.4364 11.2429 62.6662 10.885 63.01 10.6446C63.3539 10.4041 63.7843 10.3002 64.2087 10.3552C65.3178 10.3552 65.9523 10.827 65.9523 11.5687C65.9575 11.7753 65.8872 11.9773 65.7531 12.1409C65.619 12.3045 65.4292 12.4198 65.2156 12.4676V12.5361C65.47 12.567 65.7034 12.6846 65.8717 12.8667C66.0399 13.0488 66.1313 13.2827 66.1284 13.524C66.1284 14.3586 65.3735 14.9108 64.2209 14.9108C63.2018 14.9108 62.3741 14.4713 62.2891 13.5844Z" fill="white"/>
<path d="M67.4546 14.8303V10.44H68.3674V13.4597H68.4402L70.5906 10.44H71.5034V14.8303H70.5906V11.7944H70.5218L68.3674 14.8303L67.4546 14.8303Z" fill="white"/>
<path d="M76.532 11.1693H75.0627V14.8303H74.1408V11.1693H72.6714V10.44H76.532V11.1693Z" fill="white"/>
<path d="M81.4927 13.6449C81.3672 14.0461 81.0959 14.3931 80.7261 14.6253C80.3564 14.8574 79.9117 14.96 79.4698 14.915C79.1624 14.9227 78.8569 14.8673 78.5745 14.7527C78.2921 14.6381 78.0396 14.4671 77.8345 14.2515C77.6295 14.0358 77.4767 13.7808 77.3869 13.5041C77.297 13.2274 77.2723 12.9356 77.3143 12.6489C77.2734 12.3614 77.2986 12.069 77.3882 11.7914C77.4778 11.5139 77.6298 11.2577 77.8338 11.0402C78.0378 10.8227 78.2891 10.649 78.5706 10.5308C78.8522 10.4126 79.1574 10.3527 79.4657 10.3552C80.7641 10.3552 81.5483 11.1898 81.5483 12.5685V12.8708H78.2534V12.9194C78.2388 13.0805 78.2602 13.2427 78.3163 13.3956C78.3723 13.5486 78.4617 13.6887 78.5787 13.8072C78.6957 13.9256 78.8378 14.0197 78.9958 14.0835C79.1538 14.1472 79.3242 14.1791 79.4961 14.1771C79.7162 14.2019 79.9392 14.1645 80.1367 14.0697C80.3342 13.9749 80.4973 13.8271 80.6052 13.6449L81.4927 13.6449ZM78.2534 12.23H80.6092C80.6208 12.0827 80.5996 11.9348 80.5469 11.7957C80.4942 11.6566 80.4111 11.5294 80.303 11.4223C80.195 11.3152 80.0643 11.2305 79.9194 11.1738C79.7745 11.117 79.6186 11.0894 79.4617 11.0927C79.3024 11.0906 79.1442 11.1186 78.9966 11.1751C78.849 11.2315 78.7149 11.3152 78.6023 11.4213C78.4897 11.5273 78.4008 11.6535 78.3408 11.7924C78.2809 11.9313 78.2512 12.0801 78.2534 12.23H78.2534Z" fill="white"/>
<path d="M85.3965 10.44H87.5003C88.4131 10.44 88.9484 10.8751 88.9484 11.5563C88.9498 11.7725 88.8723 11.9826 88.7288 12.1514C88.5853 12.3202 88.3845 12.4375 88.1601 12.4837V12.5523C88.4326 12.5685 88.6881 12.6825 88.8738 12.8709C89.0595 13.0593 89.1612 13.3075 89.1579 13.5644C89.1579 14.3304 88.5457 14.8303 87.5216 14.8303H85.3965V10.44ZM86.3093 11.105V12.2419H87.222C87.7786 12.2419 88.0448 12.0405 88.0448 11.6692C88.0448 11.3269 87.813 11.105 87.3243 11.105L86.3093 11.105ZM86.3093 12.8789V14.1653H87.4012C87.9456 14.1653 88.2371 13.9391 88.2371 13.524C88.2371 13.0846 87.9072 12.8789 87.2858 12.8789L86.3093 12.8789Z" fill="white"/>
</svg>
