<svg width="66" height="36" viewBox="0 0 66 36" fill="none" xmlns="http://www.w3.org/2000/svg">
<path d="M0 14.2387V17.8479L9.68391 16.7759V12.8695L0 14.2387Z" fill="black"/>
<path d="M3.09052 18.0679V30.44H6.635V17.7028L3.09052 18.0679Z" fill="black"/>
<path d="M10.9919 12.6846V30.44H14.7272V12.1556L10.9919 12.6846Z" fill="black"/>
<path d="M15.4254 12.0573V16.1416L20.82 15.5447V11.2943L15.4254 12.0573Z" fill="black"/>
<path d="M15.4254 19.182V23.3411L18.9652 23.1469V18.8754L15.4254 19.182Z" fill="black"/>
<path d="M15.4254 26.3394V30.44H20.82V26.1755L15.4254 26.3394Z" fill="black"/>
<path d="M34.7698 9.31658V30.44H39.6688V8.62378L34.7698 9.31658Z" fill="black"/>
<path d="M40.5836 8.49498V13.354L47.7214 12.5652V7.48621L40.5836 8.49498Z" fill="black"/>
<path d="M40.5836 17.0076V21.9578L45.2614 21.7004V16.605L40.5836 17.0076Z" fill="black"/>
<path d="M40.5836 25.574V30.44H47.7214V25.3563L40.5836 25.574Z" fill="black"/>
<path d="M22.2469 11.0931V30.4401H26.5035V10.4916L22.2469 11.0931Z" fill="black"/>
<path d="M27.2969 25.979V30.4401H33.4736V25.7917L27.2969 25.979Z" fill="black"/>
<path d="M63.724 7.24751C62.1763 5.77764 59.9072 5.17378 57.424 5.53188V10.9151C58.4294 10.859 59.2439 11.2335 59.607 11.9895C60.1795 13.1808 59.5884 14.9666 58.1943 16.6238C56.0416 19.1773 50.3164 24.4084 50.3164 24.4084L58.5341 24.1369C63.5564 19.203 65.3578 16.2095 65.6813 12.4716C65.7695 11.5086 65.6392 10.5381 65.3002 9.63313C64.9611 8.72817 64.4222 7.91246 63.724 7.24751Z" fill="black"/>
<path d="M49.3018 25.3072L49.3041 30.44H65.9699V24.8016L49.3018 25.3072Z" fill="black"/>
<path d="M56.465 5.65356C51.6218 6.69043 49.2503 10.2738 49.5203 16.1205L54.6822 15.6524C54.4495 12.3499 55.4503 11.5658 56.4673 11.1351L56.465 5.65356Z" fill="black"/>
</svg>
