<svg width="23" height="22" viewBox="0 0 23 22" fill="none" xmlns="http://www.w3.org/2000/svg">
<path d="M21.9051 17.5363L21.7955 17.2063C21.5361 16.4353 20.6859 15.6312 19.9048 15.4193L17.014 14.6296C16.23 14.4163 15.1117 14.7031 14.5381 15.2767L13.4919 16.3229C9.68956 15.2955 6.70795 12.3138 5.68189 8.51218L6.72819 7.46588C7.30177 6.8923 7.58851 5.77549 7.37523 4.99154L6.58694 2.09925C6.37366 1.31672 5.56808 0.466503 4.79856 0.209965L4.46856 0.0990127C3.69756 -0.157525 2.598 0.101918 2.02446 0.67545L0.459414 2.24193C0.179819 2.52005 0.00112299 3.31553 0.00112299 3.31844C-0.0536155 8.28733 1.89474 13.0746 5.40953 16.5895C8.9157 20.0956 13.6851 22.0411 18.6395 21.9993C18.6654 21.9993 19.484 21.8235 19.7636 21.5453L21.3286 19.9803C21.9021 19.4068 22.1615 18.3073 21.9051 17.5363Z" fill="#C3E400"/>
</svg>
